<?xml version="1.0" standalone="no"?><!DOCTYPE svg PUBLIC "-//W3C//DTD SVG 1.1//EN" "http://www.w3.org/Graphics/SVG/1.1/DTD/svg11.dtd"><svg t="1639484099588" class="icon" viewBox="0 0 1024 1024" version="1.1" xmlns="http://www.w3.org/2000/svg" p-id="11059" xmlns:xlink="http://www.w3.org/1999/xlink" width="200" height="200"><defs><style type="text/css"></style></defs><path d="M58.368 754.688c0 116.224 94.208 210.944 210.944 210.944s210.944-94.208 210.944-210.944v-210.944H268.8c-116.224 0.512-210.432 94.72-210.432 210.944z m907.264-485.888c0-116.224-94.208-210.944-210.944-210.944s-210.944 94.208-210.944 210.944v210.944h210.944c116.736 0 210.944-94.208 210.944-210.944zM268.8 479.744h210.944V268.8c0-116.224-94.208-210.944-210.944-210.944S58.368 152.576 58.368 268.8c0 116.736 94.208 210.944 210.432 210.944z m485.888 64.512h-210.944v210.944c0 116.224 94.208 210.944 210.944 210.944s210.944-94.208 210.944-210.944-94.208-210.944-210.944-210.944z" fill="#25A5EB" p-id="11060"></path></svg>