<?xml version="1.0" standalone="no"?><!DOCTYPE svg PUBLIC "-//W3C//DTD SVG 1.1//EN" "http://www.w3.org/Graphics/SVG/1.1/DTD/svg11.dtd"><svg t="1639484113506" class="icon" viewBox="0 0 1059 1024" version="1.1" xmlns="http://www.w3.org/2000/svg" p-id="12667" xmlns:xlink="http://www.w3.org/1999/xlink" width="206.8359375" height="200"><defs><style type="text/css"></style></defs><path d="M860.604646 309.2325L529.852146 639.985h37.80125s3.18125 0.11125 7.29625 1.32875L883.189646 333.0725l-22.585-23.84zM835.437146 282.66625L478.118396 639.985h46.43l333.4775-333.475zM810.270896 256.1025L132.977146 933.395c1.24875 14.37125 4.76375 26.46625 9.78875 36.64125l296.88875-296.88875v-7.56625c0-25.645 25.60125-25.59625 25.60125-25.59625h7.56l360.04125-360.04125-22.58625-23.84125zM735.915896 177.61625L132.462146 781.06875v46.42875l626.03875-626.04zM761.082146 204.18L132.462146 832.8v46.42875l651.20625-651.2075zM684.438396 123.27875L132.462146 675.25625v46.42875l574.56375-574.565zM786.248396 230.745L132.462146 884.53125v37.07c0 2.33375 0.07375 4.59625 0.18125 6.825l675.0475-675.0475-21.4425-22.63375zM912.080896 363.56875L593.253396 682.395v46.43l341.41375-341.415zM900.445896 742.02375l-281.975 281.975h46.4275l235.5475-235.5475zM885.769646 335.79625L578.830896 642.735c6.89375 3.03875 14.4225 9.42375 14.4225 22.845v11.51125l316.2475-316.2475-23.73125-25.0475zM900.445896 687.94125L593.253396 995.1325v28.86625h19.915l287.2775-287.2775zM900.445896 921.60125v-26.7375L771.312146 1023.99875h26.7375c7.645 0 14.705-0.555 21.25125-1.56l78.9425-78.9425c2.445-12.78375 2.2025-21.895 2.2025-21.895zM900.445896 845.485L721.932146 1023.99875h44.07625l134.4375-134.4375zM825.774646 1021.2675c47.18125-9.96625 64.5775-45.20875 70.9725-70.9725l-70.9725 70.9725zM900.445896 636.21L593.253396 943.4025v46.4275L900.445896 682.6375zM900.445896 793.75375L670.200896 1023.99875h46.4275l183.8175-183.81625zM962.412146 416.69625L593.253396 785.8575v48.78l392.89125-392.89125zM937.248396 390.13375L593.253396 734.1275v46.42625l366.58-366.58zM977.243396 563.18375c30.62 0 42.9425-29.26375 47.89125-51.6625l-51.6625 51.6625h3.77125zM968.169646 563.18375l58.26125-58.26125c1.8425-10.6775 2.0075-18.53125 2.0075-18.53125l-14.54875-15.3575-92.14875 92.14875h46.42875zM900.445896 584.48L593.253396 891.6725v46.42625l307.1925-307.19125zM900.445896 563.18375h15.99375l94.87125-94.8725-22.5875-23.84125-395.47 395.47v46.43l307.1925-307.1925zM709.604646 149.84375L132.462146 726.9875v48.77875l600.87375-600.87375zM234.859646 1023.99875h11.4875l193.3075-193.3075v-48.78L203.272146 1018.29375c17.6175 5.4125 31.5875 5.705 31.5875 5.705zM465.255896 0L67.908396 419.41875 487.327146 0zM492.629646 0l-488.12625 488.12625c0.165 5.59875 1.0175 23.95375 5.29375 43.48625L541.409646 0h-48.78zM165.742146 998.79125l273.91125-273.91125V678.45L144.580896 973.5225c5.74875 10.4275 13.115 18.7025 21.16125 25.26875zM567.648396 0h-20.93625L10.792146 535.91875c2.88125 11.8075 7.07 23.73125 13.16875 33.25875L580.049646 13.09 567.648396 0zM659.272146 96.715L132.462146 623.525v46.42875L681.858396 120.55625zM199.270896 1016.9925l240.38375-240.38375v-46.42625L168.715896 1001.12c9.92625 7.45375 20.66625 12.48375 30.555 15.8725zM298.079646 1023.99875l141.575-141.575v-46.42875L251.650896 1023.99875zM634.105896 70.15L115.472146 588.78375h16.99v29.43875L656.692146 93.99125zM439.654646 1023.99875v-30.45875l-30.45875 30.45875zM403.892146 1023.99875l35.7625-35.76125v-48.7825l-84.54375 84.54375zM607.795896 42.3775L61.389646 588.78375h48.78L631.525896 67.42625zM582.629646 15.81375L26.117146 572.325c7.19625 9.85 16.7775 16.45875 29.54875 16.45875h0.42125L605.217146 39.655 582.629646 15.81375zM349.808396 1023.99875l89.84625-89.84625v-46.425L303.382146 1023.99875z" fill="#108BFF" p-id="12668"></path><path d="M487.327146 0L67.908396 419.41875 4.464646 486.38625s0.005 0.61375 0.03875 1.74L492.629646 0h-5.3025zM541.409646 0l-531.6125 531.6125c0.3125 1.43125 0.645 2.8675 0.99625 4.30625L546.712146 0h-5.3025zM580.049646 13.09L23.960896 569.17875a62.23125 62.23125 0 0 0 2.15625 3.1475L582.629646 15.81375l-2.58-2.72375zM605.217146 39.655L56.087146 588.78375h5.3025L607.795896 42.3775zM807.690896 253.37875L132.643396 928.42625c0.0825 1.68625 0.1925 3.3425 0.33375 4.96875l677.2925-677.2925-2.57875-2.72375zM832.857146 279.94375L472.815896 639.985h5.3025l357.31875-357.31875zM144.580896 973.5225L439.654646 678.45v-5.3025L142.765896 970.035c0.585 1.18875 1.19 2.35125 1.815 3.4875zM168.715896 1001.12l270.93875-270.9375v-5.3025L165.742146 998.79125a92.9975 92.9975 0 0 0 2.97375 2.32875zM858.025896 306.51l-333.4775 333.475h5.30375l330.7525-330.7525zM203.272146 1018.29375L439.653396 781.9125v-5.3025L199.270896 1016.9925c1.35125 0.46375 2.68625 0.8975 4.00125 1.30125zM883.189646 333.0725L574.949646 641.315a32.3125 32.3125 0 0 1 3.88125 1.42125l306.93875-306.94-2.58-2.72375zM251.650896 1023.99875l188.00375-188.00375v-5.3025L246.347146 1023.99875zM909.500896 360.845L593.253396 677.0925v5.3025l318.8275-318.82625zM303.382146 1023.99875l136.2725-136.27125v-5.30375l-141.575 141.575zM934.667146 387.41L593.253396 728.825v5.3025l343.995-343.99375zM959.833396 413.97375L593.253396 780.55375v5.30375l369.15875-369.16125zM355.110896 1023.99875l84.54375-84.54375v-5.3025l-89.84625 89.84625zM631.525896 67.42625L110.169646 588.78375h5.3025L634.105896 70.15zM656.692146 93.99125L132.462146 618.2225v5.3025L659.272146 96.715zM681.858396 120.55625L132.462146 669.95375v5.3025L684.438396 123.27875zM707.025896 147.12L132.462146 721.685v5.3025l577.1425-577.14375zM733.335896 174.8925L132.462146 775.76625v5.3025l603.45375-603.4525zM758.500896 201.4575L132.462146 827.4975v5.3025l628.62-628.62zM783.668396 228.02125L132.462146 879.22875v5.3025l653.78625-653.78625zM900.445896 889.56125l-134.4375 134.4375h5.30375l129.13375-129.13375zM898.242146 943.49625l-78.9425 78.9425a115.96 115.96 0 0 0 6.475-1.1725l70.9725-70.9725c0.58375-2.3525 1.08-4.63 1.495-6.7975zM409.195896 1023.99875l30.45875-30.45875v-5.3025l-35.7625 35.76125zM986.144646 441.74625L593.253396 834.6375v5.3025l395.47-395.47zM921.742146 563.18375l92.14875-92.14875-2.58-2.72375-94.87125 94.8725zM900.445896 579.1775L593.253396 886.37v5.3025l307.1925-307.1925zM973.472146 563.18375l51.6625-51.6625c0.50375-2.28375 0.9325-4.495 1.29625-6.59875l-58.26125 58.26125h5.3025zM900.445896 630.9075L593.253396 938.09875v5.30375l307.1925-307.1925zM900.445896 682.6375L593.253396 989.83v5.3025l307.1925-307.19125zM900.445896 736.72125L613.168396 1023.99875h5.3025l281.975-281.975zM900.445896 788.45125L664.898396 1023.99875h5.3025l230.245-230.245zM900.445896 840.1825L716.628396 1023.99875h5.30375l178.51375-178.51375z" fill="#FFFFFF" p-id="12669"></path></svg>